<?xml version="1.0" encoding="UTF-8"?>
<svg id="Camada_2" data-name="Camada 2" xmlns="http://www.w3.org/2000/svg" xmlns:xlink="http://www.w3.org/1999/xlink" viewBox="0 0 63.96 17.91">
  <defs>
    <style>
      .cls-1 {
        fill: url(#Gradiente_sem_nome_8);
      }

      .cls-2 {
        fill: #fdc93e;
      }
    </style>
    <linearGradient id="Gradiente_sem_nome_8" data-name="Gradiente sem nome 8" x1="37.58" y1="25.23" x2="26.37" y2="-7.32" gradientUnits="userSpaceOnUse">
      <stop offset="0" stop-color="#2c71b8"/>
      <stop offset="1" stop-color="#4554a1"/>
    </linearGradient>
  </defs>
  <g id="Camada_1-2" data-name="Camada 1">
    <g>
      <rect class="cls-2" width="63.96" height="17.91"/>
      <rect class="cls-1" x="1.26" y="1.33" width="61.44" height="15.25"/>
      <g>
        <path class="cls-2" d="M7.43,4v4.89c0,.26,0,.53.03.81.02.27.08.52.18.75.1.22.26.4.47.54.21.14.52.21.91.21s.69-.07.9-.21c.21-.14.37-.32.47-.54.1-.22.16-.47.18-.75.02-.27.03-.54.03-.81V4h2.33v5.21c0,1.4-.32,2.42-.96,3.06-.64.64-1.62.97-2.95.97s-2.31-.32-2.96-.97c-.64-.64-.97-1.67-.97-3.06V4h2.34Z"/>
        <path class="cls-2" d="M14.81,4h3.46c.61,0,1.19.12,1.72.37.54.25,1.01.57,1.41.98.4.41.72.89.95,1.43.23.54.35,1.12.35,1.71s-.11,1.15-.34,1.7c-.23.54-.54,1.02-.94,1.44-.4.41-.87.74-1.41.99-.54.25-1.12.37-1.74.37h-3.46V4ZM17.15,11.01h.54c.41,0,.77-.06,1.09-.19.32-.13.59-.3.8-.52.22-.22.39-.49.5-.79.12-.31.17-.64.17-1.01s-.06-.69-.18-1c-.12-.31-.29-.58-.51-.8-.22-.22-.49-.4-.81-.52-.32-.13-.68-.19-1.07-.19h-.54v5.03Z"/>
        <path class="cls-2" d="M26.52,4v8.99h-2.34V4h2.34Z"/>
        <path class="cls-2" d="M28,12.99l1.53-8.99h2.31l1.8,4.79,1.79-4.79h2.31l1.53,8.99h-2.33l-.78-5.18-2.12,5.18h-.93l-2.02-5.18-.78,5.18h-2.33Z"/>
        <path class="cls-2" d="M40.35,8.49c0-.67.12-1.29.37-1.87.25-.58.59-1.08,1.03-1.51.44-.43.96-.77,1.57-1.01.61-.24,1.28-.36,2.01-.36s1.39.12,2,.36c.61.24,1.14.58,1.58,1.01.44.43.79.93,1.03,1.51.25.58.37,1.2.37,1.87s-.12,1.29-.37,1.87c-.25.58-.59,1.08-1.03,1.51-.44.43-.97.77-1.58,1.01-.61.24-1.28.36-2,.36s-1.4-.12-2.01-.36c-.61-.24-1.13-.58-1.57-1.01-.44-.43-.78-.93-1.03-1.51-.25-.58-.37-1.2-.37-1.87ZM42.79,8.49c0,.36.07.69.2.99.14.3.32.56.55.79.23.22.5.4.81.52.31.12.63.18.97.18s.67-.06.97-.18c.31-.12.58-.3.81-.52.23-.22.42-.48.55-.79.14-.3.2-.63.2-.99s-.07-.69-.2-.99c-.14-.3-.32-.56-.55-.79-.23-.22-.51-.4-.81-.52-.31-.12-.63-.18-.97-.18s-.67.06-.97.18c-.31.12-.57.3-.81.52-.23.22-.41.49-.55.79-.14.3-.2.63-.2.99Z"/>
        <path class="cls-2" d="M51.78,4h3.48c.83,0,1.46.2,1.88.6.43.4.64.97.64,1.72,0,.45-.08.83-.24,1.13-.16.3-.41.55-.75.76.33.06.62.16.85.29.23.13.43.29.57.48.15.19.25.41.32.64.06.24.1.49.1.76,0,.42-.07.8-.22,1.12-.15.33-.35.6-.62.82-.27.22-.59.39-.97.5-.38.11-.81.17-1.29.17h-3.76V4ZM54.12,7.53h.43c.73,0,1.1-.29,1.1-.87s-.37-.87-1.1-.87h-.43v1.74ZM54.12,11.18h.51c.59,0,1.01-.08,1.26-.23.25-.15.38-.39.38-.73s-.13-.58-.38-.73c-.25-.15-.68-.23-1.26-.23h-.51v1.91Z"/>
      </g>
    </g>
  </g>
</svg>