<?xml version="1.0" encoding="UTF-8"?>
<svg id="Camada_2" xmlns="http://www.w3.org/2000/svg" version="1.1" viewBox="0 0 64 17.9">
  <!-- Generator: Adobe Illustrator 30.4.0, SVG Export Plug-In . SVG Version: 2.1.4 Build 226)  -->
  <defs>
    <style>
      .st0 {
        fill: #fff;
      }
    </style>
  </defs>
  <path class="st0" d="M0,0v17.9h64V0H0ZM62.7,16.6H1.3V1.3h61.4v15.2Z"/>
  <g>
    <path class="st0" d="M7.4,4v4.9c0,.3,0,.5,0,.8,0,.3,0,.5.2.8,0,.2.3.4.5.5s.5.2.9.2.7,0,.9-.2.4-.3.5-.5.2-.5.2-.8c0-.3,0-.5,0-.8v-4.9h2.3v5.2c0,1.4-.3,2.4-1,3.1s-1.6,1-2.9,1-2.3-.3-3-1c-.6-.6-1-1.7-1-3.1v-5.2h2.3Z"/>
    <path class="st0" d="M14.8,4h3.5c.6,0,1.2.1,1.7.4.5.2,1,.6,1.4,1s.7.9,1,1.4c.2.5.4,1.1.4,1.7s-.1,1.1-.3,1.7c-.2.5-.5,1-.9,1.4-.4.4-.9.7-1.4,1-.5.2-1.1.4-1.7.4h-3.5V4ZM17.1,11h.5c.4,0,.8,0,1.1-.2.3-.1.6-.3.8-.5.2-.2.4-.5.5-.8.1-.3.2-.6.2-1s0-.7-.2-1-.3-.6-.5-.8c-.2-.2-.5-.4-.8-.5-.3-.1-.7-.2-1.1-.2h-.5v5h0Z"/>
    <path class="st0" d="M26.5,4v9h-2.3V4h2.3Z"/>
    <path class="st0" d="M28,13l1.5-9h2.3l1.8,4.8,1.8-4.8h2.3l1.5,9h-2.3l-.8-5.2-2.1,5.2h-.9l-2-5.2-.8,5.2h-2.3,0Z"/>
    <path class="st0" d="M40.3,8.5c0-.7.1-1.3.4-1.9s.6-1.1,1-1.5c.4-.4,1-.8,1.6-1,.6-.2,1.3-.4,2-.4s1.4.1,2,.4c.6.2,1.1.6,1.6,1,.4.4.8.9,1,1.5.2.6.4,1.2.4,1.9s-.1,1.3-.4,1.9-.6,1.1-1,1.5-1,.8-1.6,1c-.6.2-1.3.4-2,.4s-1.4-.1-2-.4c-.6-.2-1.1-.6-1.6-1s-.8-.9-1-1.5-.4-1.2-.4-1.9ZM42.8,8.5c0,.4,0,.7.2,1,.1.3.3.6.5.8.2.2.5.4.8.5s.6.2,1,.2.7,0,1-.2c.3-.1.6-.3.8-.5s.4-.5.5-.8c.1-.3.2-.6.2-1s0-.7-.2-1c-.1-.3-.3-.6-.5-.8-.2-.2-.5-.4-.8-.5-.3-.1-.6-.2-1-.2s-.7,0-1,.2c-.3.1-.6.3-.8.5-.2.2-.4.5-.5.8s-.2.6-.2,1Z"/>
    <path class="st0" d="M51.8,4h3.5c.8,0,1.5.2,1.9.6.4.4.6,1,.6,1.7s0,.8-.2,1.1-.4.6-.8.8c.3,0,.6.2.8.3s.4.3.6.5c.2.2.2.4.3.6,0,.2,0,.5,0,.8,0,.4,0,.8-.2,1.1-.2.3-.3.6-.6.8-.3.2-.6.4-1,.5s-.8.2-1.3.2h-3.8V4h0ZM54.1,7.5h.4c.7,0,1.1-.3,1.1-.9s-.4-.9-1.1-.9h-.4s0,1.7,0,1.7ZM54.1,11.2h.5c.6,0,1,0,1.3-.2s.4-.4.4-.7-.1-.6-.4-.7-.7-.2-1.3-.2h-.5v1.9h0Z"/>
  </g>
</svg>